<?xml version="1.0" encoding="utf-8"?>
<!-- Generator: Adobe Illustrator 21.1.0, SVG Export Plug-In . SVG Version: 6.00 Build 0)  -->
<svg version="1.1" id="Calque_1" xmlns="http://www.w3.org/2000/svg" xmlns:xlink="http://www.w3.org/1999/xlink" x="0px" y="0px"
	 viewBox="0 0 100 125" style="enable-background:new 0 0 100 125;" xml:space="preserve">
<g>
	<path d="M73.4,53.3l-15.7-5.1c-0.5-0.2-0.8-0.6-0.8-1.1v-17c0-4.7-3.8-8.5-8.5-8.5c-4.7,0-8.5,3.8-8.5,8.5v34.4
		c0,0.4-0.1,0.6-0.3,0.8c-0.2,0.2-0.5,0.3-0.8,0.3c-0.2,0-0.5-0.1-0.7-0.2l-8.8-6.8l0,0c-1.4-1-3-1.6-4.6-1.6
		c-1.9,0-3.9,0.7-5.3,2.2c-1.5,1.5-2.2,3.4-2.2,5.3c0,1.7,0.6,3.5,1.8,4.9l15,17.6c4.3,5,10.6,7.9,17.2,7.9h7.7
		c10.9,0,20.2-7.7,22.3-18.3l1.5-7.6c0.2-0.9,0.3-1.8,0.3-2.6C82.9,60.6,79.1,55.2,73.4,53.3z M79.8,68.5l-1.5,7.6
		c-1.8,9.3-10,16-19.4,16h-7.7c-5.8,0-11.3-2.5-15-6.9l-15-17.6c-0.7-0.9-1.1-1.9-1.1-3c0-1.2,0.5-2.4,1.4-3.3
		c0.9-0.9,2.1-1.4,3.3-1.4c1,0,2,0.3,2.8,1l0.9-1.2l-0.9,1.2l8.8,6.8c0.7,0.6,1.6,0.8,2.5,0.8c1.1,0,2-0.4,2.8-1.1
		c0.8-0.7,1.3-1.8,1.3-2.9V30.1c0-1.5,0.6-2.9,1.6-4c1-1,2.4-1.6,4-1.6c1.5,0,2.9,0.6,4,1.6c1,1,1.6,2.4,1.6,4v17
		c0,1.8,1.1,3.3,2.8,3.8l15.7,5.1C77,57.6,80,61.8,80,66.4C80,67.1,79.9,67.8,79.8,68.5z"/>
	<path d="M64.9,29.1c0,0.8,0.7,1.5,1.5,1.5h4.4c0.8,0,1.5-0.6,1.5-1.5s-0.7-1.5-1.5-1.5h-4.4C65.5,27.7,64.9,28.3,64.9,29.1z"/>
	<path d="M48.1,12.2c0.8,0,1.5-0.6,1.5-1.5V6.5c0-0.8-0.7-1.5-1.5-1.5s-1.5,0.7-1.5,1.5v4.3C46.6,11.6,47.3,12.2,48.1,12.2z"/>
	<path d="M62,17.2l3.1-3.1c0.6-0.6,0.6-1.5,0-2.1c-0.6-0.6-1.5-0.6-2.1,0L60,15.1c-0.6,0.6-0.6,1.5,0,2.1S61.5,17.8,62,17.2z"/>
	<path d="M34.1,17.2c0.6,0.6,1.5,0.6,2.1,0c0.6-0.6,0.6-1.5,0-2.1L33.1,12c-0.6-0.6-1.5-0.6-2.1,0c-0.6,0.6-0.6,1.5,0,2.1L34.1,17.2
		z"/>
	<path d="M25.4,30.4h4.4c0.8,0,1.5-0.6,1.5-1.5s-0.6-1.5-1.5-1.5h-4.4c-0.8,0-1.5,0.6-1.5,1.5C24,29.7,24.6,30.4,25.4,30.4z"/>
</g>
</svg>
