<?xml version="1.0" encoding="utf-8"?>
<!-- Generator: Adobe Illustrator 21.1.0, SVG Export Plug-In . SVG Version: 6.00 Build 0)  -->
<svg version="1.1" id="Calque_1" xmlns="http://www.w3.org/2000/svg" xmlns:xlink="http://www.w3.org/1999/xlink" x="0px" y="0px"
	 viewBox="0 0 32 40" style="enable-background:new 0 0 32 40;" xml:space="preserve">
<style type="text/css">
	.st0{display:none;}
	.st1{display:inline;}
	.st2{fill:none;stroke:#FFFFFF;stroke-width:2;stroke-miterlimit:10;}
	.st3{display:inline;fill:none;stroke:#FFD160;stroke-miterlimit:10;}
	.st4{display:inline;fill:none;stroke:#1A1718;stroke-miterlimit:10;}
	.st5{display:inline;fill:none;stroke:#1A1718;stroke-width:2;stroke-miterlimit:10;}
	.st6{display:inline;fill:none;stroke:#1A1718;stroke-width:0.5;stroke-miterlimit:10;}
</style>
<g class="st0">
	<rect x="-331.3" y="-18.7" class="st1" width="473.3" height="236"/>
</g>
<g class="st0">
	<g class="st1">
		<circle cx="16" cy="16" r="16"/>
		<polygon points="16,13 8.7,25.6 23.3,25.6 		"/>
		<line class="st2" x1="23.9" y1="8.1" x2="8.1" y2="8.1"/>
	</g>
</g>
<g class="st0">
	<g class="st1">
		<path d="M16,31.5c-8.5,0-15.5-7-15.5-15.5S7.5,0.5,16,0.5s15.5,7,15.5,15.5S24.5,31.5,16,31.5z"/>
		<path d="M16,1c8.3,0,15,6.7,15,15s-6.7,15-15,15S1,24.3,1,16S7.7,1,16,1 M16,0C7.2,0,0,7.2,0,16s7.2,16,16,16s16-7.2,16-16
			S24.8,0,16,0L16,0z"/>
	</g>
	<polygon class="st1" points="16,13 8.7,25.6 23.3,25.6 	"/>
	<line class="st3" x1="23.9" y1="8.1" x2="8.1" y2="8.1"/>
</g>
<g class="st0">
	<g class="st1">
		<path d="M16,1c8.3,0,15,6.7,15,15s-6.7,15-15,15S1,24.3,1,16S7.7,1,16,1 M16,0C7.2,0,0,7.2,0,16s7.2,16,16,16s16-7.2,16-16
			S24.8,0,16,0L16,0z"/>
	</g>
	<g class="st1">
		<path d="M16,15l5.6,9.6H10.4L16,15 M16,13L8.7,25.6h14.6L16,13L16,13z"/>
	</g>
	<line class="st4" x1="23.9" y1="8.1" x2="8.1" y2="8.1"/>
</g>
<g class="st0">
	<g class="st1">
		<path d="M16,2c7.7,0,14,6.3,14,14s-6.3,14-14,14S2,23.7,2,16S8.3,2,16,2 M16,0C7.2,0,0,7.2,0,16s7.2,16,16,16s16-7.2,16-16
			S24.8,0,16,0L16,0z"/>
	</g>
	<g class="st1">
		<g>
			<path d="M16,17l3.8,6.6h-7.7L16,17 M16,13L8.7,25.6h14.6L16,13L16,13z"/>
		</g>
	</g>
	<line class="st5" x1="23.9" y1="8.1" x2="8.1" y2="8.1"/>
</g>
<g class="st0">
	<g class="st1">
		<path d="M16,0.5c8.5,0,15.5,7,15.5,15.5s-7,15.5-15.5,15.5S0.5,24.5,0.5,16S7.5,0.5,16,0.5 M16,0C7.2,0,0,7.2,0,16s7.2,16,16,16
			s16-7.2,16-16S24.8,0,16,0L16,0z"/>
	</g>
	<g class="st1">
		<g>
			<path d="M16,14l6.4,11.1H9.6L16,14 M16,13L8.7,25.6h14.6L16,13L16,13z"/>
		</g>
	</g>
	<line class="st6" x1="23.9" y1="8.1" x2="8.1" y2="8.1"/>
</g>
<g>
	<g>
		<path d="M15.9,31.8c8.6,0,16-7.1,16.1-15.9c0-8.7-7.3-15.8-15.9-15.8C7.2,0.2,0.4,7.3,0,16C0.4,24.7,7,31.9,15.9,31.8z M17.1,1.1
			c7.7,0.6,13.7,7.3,13.7,15c0,8.5-7.4,15.6-16,14.9C7,30.3,1.5,23.6,1.2,16C1.5,7.5,8.3,0.3,17.1,1.1z"/>
		<path d="M16.6,12.9C16.6,12.9,16.5,12.9,16.6,12.9C16.5,12.9,16.5,12.9,16.6,12.9c-0.4-0.3-1.1,0-1.2,0.2c-2.3,4-4.7,8-7,12.1
			c-0.1,0.2,0.1,0.3,0.3,0.3c4.7,0,9.4,0,14.1,0c0.1,0,1-0.2,0.8-0.5C21.3,21,18.9,17,16.6,12.9z M11.6,24.9c-0.4,0-1.5-0.1-2,0
			c0.3-0.4,0.9-1.4,1-1.6c0.8-1.4,1.6-2.8,2.4-4.2c1-1.7,1.9-3.4,2.9-5c2.1,3.6,4.2,7.2,6.2,10.8c-1.9,0-3.8,0-5.7,0
			C14.9,24.9,13.2,24.9,11.6,24.9z"/>
		<path d="M8,8.7c5.1,0,10.1,0,15.2,0c0.2,0,1.3-0.5,0.8-0.5c-5.1,0-10.1,0-15.2,0C8.5,8.2,7.5,8.7,8,8.7z"/>
	</g>
</g>
<g class="st0">
	<rect x="2" y="2" class="st1" width="28" height="28"/>
	<g class="st1">
		<path d="M16,31.5c-8.5,0-15.5-7-15.5-15.5S7.5,0.5,16,0.5s15.5,7,15.5,15.5S24.5,31.5,16,31.5z"/>
		<path d="M16,1c8.3,0,15,6.7,15,15s-6.7,15-15,15S1,24.3,1,16S7.7,1,16,1 M16,0C7.2,0,0,7.2,0,16s7.2,16,16,16s16-7.2,16-16
			S24.8,0,16,0L16,0z"/>
	</g>
	<g class="st1">
		<polygon points="9.6,25.1 16,14 22.4,25.1 		"/>
		<g>
			<path d="M16,15l5.6,9.6H10.4L16,15 M16,13L8.7,25.6h14.6L16,13L16,13z"/>
		</g>
	</g>
	<line class="st4" x1="23.9" y1="8.1" x2="8.1" y2="8.1"/>
</g>
<g class="st0">
	<g class="st1">
		<path d="M16,32c8.8,0,16-7.2,16-16S24.8,0,16,0S0,7.2,0,16S7.2,32,16,32z M8.7,25.6L16,13l7.3,12.6H8.7z M8.1,7.1h15.8v2H8.1V7.1z
			"/>
	</g>
</g>
<g class="st0">
	<circle class="st1" cx="16" cy="16" r="13.4"/>
	<path class="st1" d="M16,32c8.8,0,16-7.2,16-16S24.8,0,16,0S0,7.2,0,16S7.2,32,16,32z M8.7,25.6L16,13l7.3,12.6H8.7z M8.1,7.1h15.8
		v2H8.1V7.1z"/>
</g>
</svg>
