<?xml version="1.0" encoding="utf-8"?>
<!-- Generator: Adobe Illustrator 21.1.0, SVG Export Plug-In . SVG Version: 6.00 Build 0)  -->
<svg version="1.1" id="Calque_1" xmlns="http://www.w3.org/2000/svg" xmlns:xlink="http://www.w3.org/1999/xlink" x="0px" y="0px"
	 viewBox="0 0 5 6.2" style="enable-background:new 0 0 5 6.2;" xml:space="preserve">
<title>1111</title>
<path d="M3.9,1.6L4.3,2L3.9,2.3l0.3,0.3L3.9,3c0,0-0.1-0.1-0.1-0.1C3.7,2.7,3.6,2.6,3.5,2.5c0,0-0.1,0-0.1,0c0,0-0.1,0-0.1,0
	l0.2,0.6L3.1,3.3c0-0.1,0-0.1-0.1-0.2C3,3,3,2.9,2.9,2.7c0,0,0-0.1-0.1,0c-0.1,0-0.1,0-0.1,0.1c0,0.2,0,0.3,0,0.5c0,0,0,0.1-0.1,0.1
	c-0.1,0-0.3,0-0.4,0c0,0,0,0,0-0.1c0-0.2,0-0.4,0-0.5c0,0,0-0.1-0.1-0.1c-0.1,0-0.1,0-0.2,0.1C2,3,1.9,3.1,1.9,3.3L1.4,3.2l0.2-0.6
	c0,0-0.1,0-0.1,0c0,0,0,0-0.1,0C1.3,2.7,1.2,2.8,1.1,2.9L0.7,2.6l0.3-0.3L0.7,2l0.4-0.4C1.5,2,2,2.2,2.5,2.2C3,2.2,3.5,2,3.9,1.6z"
	/>
</svg>
