<?xml version="1.0" encoding="utf-8"?>
<!-- Generator: Adobe Illustrator 21.1.0, SVG Export Plug-In . SVG Version: 6.00 Build 0)  -->
<svg version="1.1" id="Calque_1" xmlns="http://www.w3.org/2000/svg" xmlns:xlink="http://www.w3.org/1999/xlink" x="0px" y="0px"
	 viewBox="0 0 100 125" style="enable-background:new 0 0 100 125;" xml:space="preserve">
<g>
	<g>
		<path d="M49.9,8.2C27,8.2,8.3,26.8,8.3,49.6S27,91,49.9,91s41.6-18.6,41.6-41.4S72.8,8.2,49.9,8.2z M49.9,89
			c-21.8,0-39.6-17.7-39.6-39.4s17.8-39.4,39.6-39.4s39.6,17.7,39.6,39.4S71.7,89,49.9,89z"/>
		<path d="M71.9,44.7L41.5,25.1c-3.7-2.4-6.5-0.7-6.5,3.7v40.6c0,4.4,2.8,6.1,6.5,3.7L72,53.4C75.7,51,75.6,47.1,71.9,44.7z
			 M70.8,51.7L40.5,71.4c-2.4,1.5-3.5,0.8-3.5-2V28.8c0-2.8,1.1-3.5,3.5-2l30.4,19.6C73.4,48,73.3,50.1,70.8,51.7z"/>
	</g>
</g>
</svg>
