<?xml version="1.0" encoding="utf-8"?>
<!-- Generator: Adobe Illustrator 21.1.0, SVG Export Plug-In . SVG Version: 6.00 Build 0)  -->
<svg version="1.1" id="Calque_1" xmlns="http://www.w3.org/2000/svg" xmlns:xlink="http://www.w3.org/1999/xlink" x="0px" y="0px"
	 viewBox="0 0 100 125" style="enable-background:new 0 0 100 125;" xml:space="preserve">
<path d="M50.2,23c0-0.4,0.2-0.9,0.5-1.2c0.6-0.6,1.8-0.6,2.4,0c0.3,0.3,0.5,0.8,0.5,1.2s-0.2,0.9-0.5,1.2c-0.3,0.3-0.8,0.5-1.2,0.5
	s-0.9-0.2-1.2-0.5C50.4,23.8,50.2,23.4,50.2,23z M51.9,17.8c0.9,0,1.7-0.8,1.7-1.7c0-0.9-0.8-1.7-1.7-1.7s-1.7,0.8-1.7,1.7
	C50.2,17.1,51,17.8,51.9,17.8z M51.9,11c0.5,0,0.9-0.2,1.2-0.5s0.5-0.8,0.5-1.2s-0.2-0.9-0.5-1.2c-0.6-0.6-1.8-0.6-2.4,0
	c-0.3,0.3-0.5,0.8-0.5,1.2s0.2,0.9,0.5,1.2C51,10.9,51.5,11,51.9,11z M79,38.7c-0.3,0.3-0.5,0.8-0.5,1.2s0.2,0.9,0.5,1.2
	s0.8,0.5,1.2,0.5s0.9-0.2,1.2-0.5c0.3-0.3,0.5-0.8,0.5-1.2s-0.2-0.9-0.5-1.2C80.8,38.1,79.7,38.1,79,38.7z M73.4,38.2
	c-0.9,0-1.7,0.8-1.7,1.7s0.8,1.7,1.7,1.7c0.9,0,1.7-0.8,1.7-1.7S74.4,38.2,73.4,38.2z M64.9,39.9c0,0.4,0.2,0.9,0.5,1.2
	s0.8,0.5,1.2,0.5c0.4,0,0.9-0.2,1.2-0.5c0.3-0.3,0.5-0.8,0.5-1.2s-0.2-0.9-0.5-1.2c-0.6-0.6-1.8-0.6-2.4,0
	C65.1,39,64.9,39.5,64.9,39.9z M24.8,41.1c0.3-0.3,0.5-0.8,0.5-1.2s-0.2-0.9-0.5-1.2c-0.6-0.6-1.8-0.6-2.4,0
	c-0.3,0.3-0.5,0.8-0.5,1.2s0.2,0.9,0.5,1.2s0.8,0.5,1.2,0.5C24.1,41.6,24.5,41.5,24.8,41.1z M28.7,39.9c0,0.9,0.8,1.7,1.7,1.7
	c0.9,0,1.7-0.8,1.7-1.7s-0.8-1.7-1.7-1.7S28.7,39,28.7,39.9z M36,38.7c-0.3,0.3-0.5,0.8-0.5,1.2s0.2,0.9,0.5,1.2s0.8,0.5,1.2,0.5
	s0.9-0.2,1.2-0.5s0.5-0.8,0.5-1.2s-0.2-0.9-0.5-1.2C37.8,38.1,36.7,38.1,36,38.7z M28.2,16c-0.3,0.3-0.5,0.8-0.5,1.2
	c0,0.4,0.2,0.9,0.5,1.2c0.3,0.3,0.8,0.5,1.2,0.5c0.5,0,0.9-0.2,1.2-0.5c0.3-0.3,0.5-0.8,0.5-1.2c0-0.4-0.2-0.9-0.5-1.2
	C30,15.3,28.9,15.3,28.2,16z M33,20.8c-0.7,0.7-0.7,1.7,0,2.4c0.3,0.3,0.8,0.5,1.2,0.5s0.9-0.2,1.2-0.5c0.7-0.7,0.7-1.7,0-2.4
	C34.8,20.1,33.7,20.1,33,20.8z M37.9,25.6c-0.3,0.3-0.5,0.8-0.5,1.2c0,0.4,0.2,0.9,0.5,1.2c0.3,0.3,0.8,0.5,1.2,0.5s0.9-0.2,1.2-0.5
	s0.5-0.8,0.5-1.2c0-0.4-0.2-0.9-0.5-1.2C39.6,24.9,38.5,24.9,37.9,25.6z M71.8,16.9c-0.3,0.3-0.5,0.8-0.5,1.2c0,0.4,0.2,0.9,0.5,1.2
	c0.3,0.3,0.8,0.5,1.2,0.5c0.4,0,0.9-0.2,1.2-0.5c0.3-0.3,0.5-0.8,0.5-1.2c0-0.4-0.2-0.9-0.5-1.2C73.5,16.3,72.4,16.3,71.8,16.9z
	 M68.2,24.7c0.4,0,0.9-0.2,1.2-0.5c0.7-0.7,0.7-1.7,0-2.4c-0.7-0.7-1.7-0.7-2.4,0c-0.7,0.7-0.7,1.7,0,2.4
	C67.3,24.5,67.7,24.7,68.2,24.7z M62.2,26.6c-0.3,0.3-0.5,0.8-0.5,1.2s0.2,0.9,0.5,1.2c0.3,0.3,0.8,0.5,1.2,0.5
	c0.5,0,0.9-0.2,1.2-0.5c0.3-0.3,0.5-0.8,0.5-1.2s-0.2-0.9-0.5-1.2C63.9,25.9,62.8,25.9,62.2,26.6z M55.6,32.7c2.4,1.8,3.7,4.8,3.7,9
	v9.7h13.5c4.9,0,8.9,4,8.9,8.9c0,0.1,0,0.2,0,0.3l-3.7,23c-0.7,5.5-4.5,8.7-10.6,8.7h-27c-2.4,0-4.6-1-6.2-2.5
	c-0.7,0.9-1.7,1.5-2.9,1.5h-9.6c-2,0-3.6-1.6-3.6-3.6V58.6c0-2,1.6-3.6,3.6-3.6h9.6c1.1,0,2,0.5,2.7,1.2c0.2-0.2,0.4-0.3,0.7-0.4
	C35,55.7,45,52.8,45,44.2v-11c0-0.7,0.5-1.4,1.2-1.6C46.4,31.4,51.7,29.8,55.6,32.7z M31.5,58.6c0-0.1-0.1-0.2-0.2-0.2h-9.6
	c-0.1,0-0.2,0.1-0.2,0.2v29.2c0,0.1,0.1,0.2,0.2,0.2h9.6c0.1,0,0.2-0.1,0.2-0.2V58.6z M48.4,34.5v9.7C48.4,55.4,36,59,35.5,59.1
	c-0.2,0.1-0.4,0.1-0.6,0.1v24.3c0,3,2.5,5.5,5.5,5.5h27c4.3,0,6.7-1.9,7.2-5.7c0,0,0,0,0-0.1l3.6-23c-0.1-3-2.5-5.4-5.5-5.4H57.5
	c-0.9,0-1.7-0.8-1.7-1.7V41.7c0-3-0.8-5.1-2.3-6.3S49.8,34.3,48.4,34.5z"/>
</svg>
