<?xml version="1.0" encoding="utf-8"?>
<!-- Generator: Adobe Illustrator 21.1.0, SVG Export Plug-In . SVG Version: 6.00 Build 0)  -->
<svg version="1.1" id="Calque_1" xmlns="http://www.w3.org/2000/svg" xmlns:xlink="http://www.w3.org/1999/xlink" x="0px" y="0px"
	 viewBox="0 0 100 125" style="enable-background:new 0 0 100 125;" xml:space="preserve">
<g>
	<path d="M70.2,5H29.8c-2.5,0-4.5,2-4.5,4.5v81c0,2.5,2,4.5,4.5,4.5h40.5c2.5,0,4.5-2,4.5-4.5v-81C74.8,7,72.7,5,70.2,5z M72.9,90.5
		c0,1.5-1.2,2.7-2.7,2.7H29.8c-1.5,0-2.7-1.2-2.7-2.7v-81c0-1.5,1.2-2.7,2.7-2.7h40.5c1.5,0,2.7,1.2,2.7,2.7V90.5z"/>
	<path d="M29.8,81.5h40.5V14H29.8V81.5z M31.5,15.8h36.9v63.9H31.5C31.5,79.7,31.5,15.8,31.5,15.8z"/>
	<rect x="45.5" y="9.5" width="9" height="1.8"/>
	<path d="M50,82.8c-2.5,0-4.5,2-4.5,4.5s2,4.5,4.5,4.5s4.5-2,4.5-4.5S52.5,82.8,50,82.8z M50,90c-1.5,0-2.7-1.2-2.7-2.7
		s1.2-2.7,2.7-2.7c1.5,0,2.7,1.2,2.7,2.7C52.7,88.8,51.5,90,50,90z"/>
	<path d="M51.6,35.6h-3.3c-2.8,0-5.4,1.1-7.4,3.1s-3.1,4.6-3.1,7.4c0,3.2,1.4,6.1,3.8,8v6.5l6-4.1c0.2,0,0.5,0,0.7,0h3.3
		c2.8,0,5.4-1.1,7.4-3.1c2-2,3.1-4.6,3.1-7.4C62.2,40.3,57.4,35.6,51.6,35.6z M57.8,52.3c-1.6,1.6-3.8,2.6-6.2,2.6h-3.3
		c-0.3,0-0.6,0-0.9,0l-0.3,0l-3.7,2.5v-4L43.1,53c-2.2-1.6-3.4-4.2-3.4-6.9c0-2.3,0.9-4.5,2.6-6.2c1.6-1.6,3.8-2.6,6.2-2.6h3.3
		c4.8,0,8.7,3.9,8.7,8.7C60.3,48.5,59.4,50.6,57.8,52.3z"/>
	<path d="M51.2,45.6c0-0.1-0.1-0.2-0.1-0.2c-0.1-0.1-0.1-0.1-0.2-0.2s-0.1-0.1-0.2-0.2c-0.1,0-0.2-0.1-0.2-0.1
		c-0.1,0-0.2-0.1-0.3-0.1c-0.2,0-0.4,0-0.5,0c-0.1,0-0.2,0-0.3,0.1c-0.1,0-0.2,0.1-0.2,0.1c-0.1,0.1-0.1,0.1-0.2,0.2
		c-0.1,0.1-0.1,0.1-0.2,0.2c0,0.1-0.1,0.2-0.1,0.2c0,0.1-0.1,0.2-0.1,0.3c0,0.1,0,0.2,0,0.3c0,0.4,0.1,0.7,0.4,1s0.6,0.4,1,0.4
		c0.2,0,0.4,0,0.5-0.1c0.2-0.1,0.3-0.2,0.4-0.3c0.1-0.1,0.2-0.3,0.3-0.4c0.1-0.2,0.1-0.3,0.1-0.5c0-0.1,0-0.2,0-0.3
		C51.3,45.8,51.3,45.7,51.2,45.6z"/>
	<path d="M46.7,45.6c0-0.1-0.1-0.2-0.1-0.2c0-0.1-0.1-0.1-0.2-0.2s-0.1-0.1-0.2-0.2c-0.1,0-0.2-0.1-0.2-0.1c-0.1,0-0.2-0.1-0.3-0.1
		c-0.2,0-0.4,0-0.5,0c-0.1,0-0.2,0-0.3,0.1c-0.1,0-0.2,0.1-0.2,0.1c-0.1,0.1-0.1,0.1-0.2,0.2c-0.1,0.1-0.1,0.1-0.2,0.2
		c0,0.1-0.1,0.2-0.1,0.2c0,0.1-0.1,0.2-0.1,0.3c0,0.1,0,0.2,0,0.3c0,0.4,0.1,0.7,0.4,1c0.3,0.3,0.6,0.4,1,0.4c0.4,0,0.7-0.1,1-0.4
		c0.3-0.3,0.4-0.6,0.4-1c0-0.1,0-0.2,0-0.3C46.8,45.8,46.8,45.7,46.7,45.6z"/>
	<path d="M55.7,45.6c0-0.1-0.1-0.2-0.1-0.2c-0.1-0.1-0.1-0.1-0.2-0.2s-0.1-0.1-0.2-0.2c-0.1,0-0.2-0.1-0.2-0.1
		c-0.1,0-0.2-0.1-0.3-0.1c-0.2,0-0.4,0-0.5,0c-0.1,0-0.2,0-0.3,0.1c-0.1,0-0.2,0.1-0.2,0.1c-0.1,0.1-0.1,0.1-0.2,0.2
		c-0.1,0.1-0.1,0.1-0.2,0.2c0,0.1-0.1,0.2-0.1,0.2c0,0.1-0.1,0.2-0.1,0.3c0,0.1,0,0.2,0,0.3c0,0.4,0.1,0.7,0.4,1s0.6,0.4,1,0.4
		c0.4,0,0.7-0.1,1-0.4c0.3-0.3,0.4-0.6,0.4-1c0-0.1,0-0.2,0-0.3C55.8,45.8,55.8,45.7,55.7,45.6z"/>
</g>
</svg>
