<?xml version="1.0" encoding="utf-8"?>
<!-- Generator: Adobe Illustrator 21.1.0, SVG Export Plug-In . SVG Version: 6.00 Build 0)  -->
<svg version="1.1" id="Calque_1" xmlns="http://www.w3.org/2000/svg" xmlns:xlink="http://www.w3.org/1999/xlink" x="0px" y="0px"
	 viewBox="0 0 100 125" style="enable-background:new 0 0 100 125;" xml:space="preserve">
<g>
	<g>
		<path d="M68.6,77c-0.2,0-0.5,0-0.7,0h-0.3H29c-0.3,0-0.6,0-0.9,0c-8.3,0-15-6.7-15-14.9c0-6.8,4.6-12.7,11.2-14.4
			c0.3-14,11.8-25.4,26-25.4c10.8,0,20.4,6.7,24.3,16.6c8.1,2.5,13.8,10.1,13.8,18.6C88.2,68.3,79.4,77,68.6,77z M67.6,75H68
			c0.2,0,0.4,0,0.6,0c9.7,0,17.6-7.8,17.6-17.5c0-7.8-5.3-14.7-12.8-16.8l-0.5-0.1l-0.2-0.5c-3.4-9.4-12.5-15.8-22.6-15.8
			c-13.2,0-24,10.7-24,23.9v1.1l-0.8,0.2C19.4,50.7,15,56,15,62.1C15,69.3,20.8,75,28,75c0.3,0,0.5,0,0.8,0h0.1H67.6z"/>
	</g>
</g>
</svg>
