<?xml version="1.0" encoding="utf-8"?>
<!-- Generator: Adobe Illustrator 21.1.0, SVG Export Plug-In . SVG Version: 6.00 Build 0)  -->
<svg version="1.1"
	 id="Calque_1" xmlns:cc="http://creativecommons.org/ns#" xmlns:dc="http://purl.org/dc/elements/1.1/" xmlns:inkscape="http://www.inkscape.org/namespaces/inkscape" xmlns:rdf="http://www.w3.org/1999/02/22-rdf-syntax-ns#" xmlns:sodipodi="http://sodipodi.sourceforge.net/DTD/sodipodi-0.dtd" xmlns:svg="http://www.w3.org/2000/svg"
	 xmlns="http://www.w3.org/2000/svg" xmlns:xlink="http://www.w3.org/1999/xlink" x="0px" y="0px" viewBox="0 0 100 125"
	 style="enable-background:new 0 0 100 125;" xml:space="preserve">
<g transform="translate(0,-952.36218)">
	<path d="M65,971.4c-0.7,0-0.9,0.5-1,1v9.8l-13.4-10.6c-0.5-0.3-1-0.1-1.2,0l-38,30c-0.4,0.3-0.5,1-0.2,1.4c0.3,0.4,1,0.5,1.4,0.2
		L50,973.6l37.4,29.5c0.4,0.3,1.1,0.3,1.4-0.2c0.3-0.4,0.2-1.2-0.2-1.4L74,990v-17.7c0-0.5-0.5-1-1-1H65z M66,973.4h6v15.1l-6-4.8
		V973.4z M24,996.5l-2,1.6v34.3c0,0.6,0.4,1,1,1h19c0.6,0,1-0.4,1-1v-19h14v19c0,0.6,0.4,1,1,1h19c0.6,0,1-0.4,1-1V998l-2-1.6v34.9
		H59v-19c0-0.6-0.4-1-1-1H42c-0.6,0-1,0.4-1,1v19H24V996.5z"/>
</g>
</svg>
