<?xml version="1.0" encoding="utf-8"?>
<!-- Generator: Adobe Illustrator 21.1.0, SVG Export Plug-In . SVG Version: 6.00 Build 0)  -->
<svg version="1.1" id="Calque_1" xmlns="http://www.w3.org/2000/svg" xmlns:xlink="http://www.w3.org/1999/xlink" x="0px" y="0px"
	 viewBox="0 0 100 125" style="enable-background:new 0 0 100 125;" xml:space="preserve">
<g>
	<g>
		<path d="M92,91H9V17h83V91z M11,89h79V19H11V89z"/>
	</g>
	<rect x="11" y="13" width="79" height="2"/>
	<rect x="13" y="9" width="75" height="2"/>
	<g>
		<path d="M31,43.3c-5.2,0-9.5-4.2-9.5-9.5s4.2-9.5,9.5-9.5s9.5,4.2,9.5,9.5S36.2,43.3,31,43.3z M31,26.4c-4.1,0-7.5,3.3-7.5,7.5
			s3.3,7.5,7.5,7.5s7.5-3.3,7.5-7.5S35.1,26.4,31,26.4z"/>
	</g>
	<polygon points="11,78.7 35.2,56.5 41.7,63.1 61.4,43.4 90,69.8 90,66.8 61.3,40.7 41.7,60.2 35.3,53.8 11,75.9 	"/>
</g>
</svg>
