<?xml version="1.0" encoding="utf-8"?>
<!-- Generator: Adobe Illustrator 21.1.0, SVG Export Plug-In . SVG Version: 6.00 Build 0)  -->
<svg version="1.1" id="Calque_1" xmlns="http://www.w3.org/2000/svg" xmlns:xlink="http://www.w3.org/1999/xlink" x="0px" y="0px"
	 viewBox="0 0 512 640" style="enable-background:new 0 0 512 640;" xml:space="preserve">
<g>
	<path d="M256,483.3c-7.9,0-14.3,6.5-14.3,14.4c0,7.9,6.4,14.3,14.3,14.3c7.9,0,14.3-6.4,14.3-14.3
		C270.3,489.8,263.9,483.3,256,483.3z"/>
	<path d="M256,0c-7.9,0-14.3,6.5-14.3,14.4s6.4,14.3,14.3,14.3c7.9,0,14.3-6.4,14.3-14.3S263.9,0,256,0z"/>
	<path d="M376.7,451c-2.5,0-5,0.7-7.1,1.9c-3.3,1.9-5.7,5-6.7,8.7c-1,3.7-0.5,7.6,1.4,10.9c2.5,4.4,7.3,7.2,12.4,7.2
		c2.5,0,5-0.7,7.1-1.9c6.8-4,9.2-12.8,5.2-19.6C386.6,453.7,381.9,451,376.7,451z"/>
	<path d="M142.4,59.2c6.8-4,9.2-12.8,5.2-19.6c-2.6-4.4-7.3-7.2-12.4-7.2c-2.5,0-5,0.7-7.1,1.9c-6.9,4-9.2,12.7-5.2,19.6
		C126.6,60.5,135.7,62.9,142.4,59.2z"/>
	<path d="M472.3,364.4c-2.2-1.2-4.6-1.9-7.1-1.9c-5.1,0-9.9,2.8-12.4,7.2c-4,6.8-1.6,15.6,5.2,19.6c6.7,3.8,15.8,1.3,19.6-5.2
		C481.5,377.2,479.2,368.4,472.3,364.4z"/>
	<path d="M39.7,147.6c6.6,3.8,15.8,1.3,19.6-5.3c1.9-3.3,2.4-7.2,1.4-10.9s-3.4-6.8-6.7-8.7c-2.2-1.3-4.7-2-7.2-2
		c-5.1,0-9.9,2.8-12.4,7.2C30.4,134.9,32.8,143.6,39.7,147.6z"/>
	<path d="M497.5,241.6c-3.8,0-7.4,1.5-10.1,4.2s-4.2,6.3-4.2,10.1c0,7.9,6.4,14.4,14.3,14.4c7.9,0,14.3-6.4,14.4-14.4
		C511.9,248.1,505.4,241.6,497.5,241.6z"/>
	<path d="M14.5,241.7c-3.9,0-7.5,1.5-10.2,4.2c-2.7,2.7-4.2,6.3-4.2,10.1c0,3.8,1.5,7.4,4.2,10.2c2.7,2.7,6.3,4.2,10.2,4.2
		c7.9,0,14.3-6.5,14.3-14.4C28.8,248.1,22.4,241.7,14.5,241.7z"/>
	<path d="M465.1,120.8c-2.5,0-5,0.7-7.1,1.9c-3.3,1.9-5.7,5-6.7,8.7c-1,3.7-0.5,7.5,1.4,10.8c2.6,4.4,7.3,7.2,12.4,7.2
		c2.5,0,5-0.7,7.1-1.9c6.8-4,9.2-12.7,5.3-19.6C475,123.6,470.3,120.8,465.1,120.8z"/>
	<path d="M46.8,362.5c-2.5,0-5,0.7-7.1,1.9c-3.3,1.9-5.7,5-6.7,8.7c-1,3.7-0.5,7.5,1.4,10.9c3.8,6.6,12.9,9.1,19.6,5.3
		c6.8-4,9.2-12.8,5.2-19.6C56.7,365.2,51.9,362.5,46.8,362.5z"/>
	<path d="M383.9,34.3c-2.2-1.2-4.7-1.9-7.2-1.9c-5.1,0-9.9,2.7-12.4,7.1c-1.9,3.3-2.4,7.2-1.4,10.9c1,3.7,3.4,6.8,6.7,8.7
		c6.7,3.9,15.8,1.4,19.6-5.2C393.1,47,390.8,38.2,383.9,34.3z"/>
	<path d="M142.4,452.9c-2.2-1.2-4.6-1.9-7.1-1.9c-5.1,0-9.9,2.8-12.4,7.2c-1.9,3.3-2.4,7.2-1.4,10.9c1,3.7,3.4,6.8,6.7,8.7
		c6.7,3.9,15.8,1.4,19.6-5.2c1.9-3.3,2.4-7.2,1.4-10.9C148.1,457.8,145.7,454.8,142.4,452.9z"/>
</g>
</svg>
