<?xml version="1.0" encoding="utf-8"?>
<!-- Generator: Adobe Illustrator 21.1.0, SVG Export Plug-In . SVG Version: 6.00 Build 0)  -->
<svg version="1.1" id="Calque_1" xmlns="http://www.w3.org/2000/svg" xmlns:xlink="http://www.w3.org/1999/xlink" x="0px" y="0px"
	 viewBox="0 0 100 125" style="enable-background:new 0 0 100 125;" xml:space="preserve">
<style type="text/css">
	.st0{fill:none;stroke:#000000;stroke-width:3;stroke-linecap:round;stroke-linejoin:round;stroke-miterlimit:10;}
</style>
<g>
	<path class="st0" d="M59.1,14L56.9,22 M73.8,22.8l-5.9,5.9 M41.6,14.2l2.2,8.1 M32.2,29.2l-5.9-5.9 M41.8,79.1H59 M41.8,86H59
		 M51.4,29.1c-0.3,0-0.6,0-1,0c0,0-0.6,0-0.9,0c-9.4,0.5-16.8,8.2-16.8,17.7c0,5.1,3,10,6.5,13.7c0.7,0.6,1.5,1.6,2,2.7
		c0.4,1,0.5,2.4,0.5,3.8v1.4v3.8h3.8h4.8h0h4.8H59v-3.8V67c0-1.5,0.1-2.8,0.5-3.8c0.5-1.1,1.3-2.1,2-2.7c3.5-3.7,6.5-8.6,6.5-13.7
		C68.1,37.3,60.7,29.6,51.4,29.1z"/>
</g>
</svg>
