<?xml version="1.0" encoding="utf-8"?>
<!-- Generator: Adobe Illustrator 21.1.0, SVG Export Plug-In . SVG Version: 6.00 Build 0)  -->
<svg version="1.1" id="Calque_1" xmlns="http://www.w3.org/2000/svg" xmlns:xlink="http://www.w3.org/1999/xlink" x="0px" y="0px"
	 viewBox="0 0 512 640" style="enable-background:new 0 0 512 640;" xml:space="preserve">
<g>
	<path d="M270.3,187.1c0-7.9-6.4-14.4-14.3-14.4s-14.3,6.5-14.3,14.4s6.4,14.3,14.3,14.3S270.3,195,270.3,187.1z"/>
	<path d="M256,0C114.9,0,0.2,114.8,0.2,256c0,117.5,79.6,219.6,193.5,248.3c1.2,0.4,2.1,0.6,3.1,0.6c5,0,9.1-4.1,9.1-9.1
		c0-4.3-3-8.1-7.3-8.9c-12.1-3-23.8-6.9-35.1-11.7c-28.3-12-53.7-29.1-75.5-51c-21.8-21.8-39-47.3-50.9-75.6
		c-12.4-29.3-18.7-60.4-18.7-92.5s6.3-63.3,18.7-92.6c12-28.3,29.1-53.7,50.9-75.6c21.8-21.8,47.2-39,75.5-51
		c58.5-24.8,126.4-24.8,185,0c28.3,12,53.7,29.1,75.5,51c21.9,21.8,39,47.3,50.9,75.6c12.4,29.3,18.7,60.4,18.7,92.6
		s-6.3,63.2-18.7,92.5c-12,28.3-29.1,53.7-50.9,75.6c-21.8,21.8-47.2,39-75.5,51c-24.6,10.4-50.6,16.5-77.3,18.2l-6.1,0.4V259.6
		c0-5-4.1-9.1-9.1-9.1s-9.1,4.1-9.1,9.1v243.3c0,5,4.1,9.1,9.1,9.1h0c141.1,0,255.8-114.9,255.8-256C511.9,114.8,397.1,0,256,0z"/>
</g>
</svg>
