<?xml version="1.0" encoding="utf-8"?>
<!-- Generator: Adobe Illustrator 21.1.0, SVG Export Plug-In . SVG Version: 6.00 Build 0)  -->
<svg version="1.1" id="Calque_1" xmlns="http://www.w3.org/2000/svg" xmlns:xlink="http://www.w3.org/1999/xlink" x="0px" y="0px"
	 viewBox="0 0 64 80" style="enable-background:new 0 0 64 80;" xml:space="preserve">
<style type="text/css">
	.st0{fill:none;}
</style>
<g>
	<g>
		<path d="M55.7,31.3L53.4,28c0-0.1,0.1-0.2,0.2-0.4c0.2-0.3,0.4-0.6,0.4-1.2C54,19.6,48.4,14,41.5,14c-3.7,0-6.8,0.9-9.1,2.6
			c-2.4-1.7-5.7-2.6-9.9-2.6C15.6,14,10,19.6,10,26.5c0,0.6,0.2,0.9,0.4,1.2c0.1,0.1,0.1,0.2,0.2,0.4l-2.3,3.2
			c-0.4,0.5-0.4,1.2-0.1,1.8C8.5,33.6,9.1,34,9.7,34h0.4c0,0,0.1,0,0.1,0s0,0.1,0,0.1l-0.8,2c-0.1,0.2,0,0.4,0.1,0.5l0.4,0.4
			l-0.3,0.3c-0.2,0.2-0.2,0.4-0.1,0.7l1.1,1.6c0.1,0.2,0.1,0.5,0,0.7l-0.3,0.4c-0.5,0.6-0.5,1.4-0.2,2c0.3,0.4,0.7,0.7,1.3,0.8
			l3.3,0.4c0.9,0.1,1.8,0.6,2.3,1.3c0.4,0.6,0.7,1.3,0.7,2.1l-0.1,3.2c0,0.1,0,0.3,0.1,0.4c0.1,0.1,0.2,0.1,0.4,0.1H31
			c0.1,0,0.3-0.1,0.4-0.2c0.1-0.1,0.1-0.2,0.1-0.4L31,40c0-0.7,0.2-1.5,0.7-2c0.2-0.2,0.4-0.4,0.6-0.5c0.5-0.3,0.9-0.7,1.3-1.1
			c0.2,0.1,0.4,0.3,0.6,0.4c1.2,0.8,1.9,2.1,1.8,3.5l-0.5,10.3c0,0.1,0,0.3,0.1,0.4c0.1,0.1,0.2,0.2,0.4,0.2h9.9
			c0.1,0,0.3-0.1,0.4-0.1c0.1-0.1,0.1-0.2,0.1-0.4l-0.1-3.2c0-0.7,0.2-1.5,0.7-2.1c0.6-0.7,1.4-1.2,2.3-1.3l3.3-0.4
			c0.5-0.1,1-0.4,1.2-0.8c0.4-0.6,0.3-1.4-0.2-2l-0.3-0.4c-0.2-0.2-0.2-0.5,0-0.7l1.1-1.6c0.1-0.2,0.1-0.5-0.1-0.7L54,37.1l0.4-0.4
			c0.1-0.1,0.2-0.4,0.1-0.5l-0.8-2c0,0,0-0.1,0-0.1c0,0,0,0,0.1,0h0.4c0.6,0,1.2-0.4,1.5-0.9C56.1,32.5,56.1,31.8,55.7,31.3z
			 M31.7,36.6c-0.3,0.2-0.6,0.5-0.8,0.7C30.3,38.1,30,39,30,40l0.5,10H18.6l0-2.7c0-1-0.3-1.9-0.9-2.7c-0.7-1-1.8-1.6-3-1.7
			l-3.3-0.4c-0.2,0-0.4-0.2-0.5-0.3c-0.2-0.3-0.1-0.6,0.1-0.8l0.3-0.4c0.4-0.5,0.5-1.3,0.1-1.8l-0.8-1.2l0.4-0.3
			c0.1-0.1,0.2-0.2,0.2-0.4c0-0.1-0.1-0.3-0.2-0.4l-0.6-0.6l0.6-1.7c0.1-0.3,0.1-0.7-0.1-1S10.5,33,10.1,33H9.7
			c-0.3,0-0.5-0.1-0.6-0.4S9,32.1,9.1,31.9l2.9-4.1c0.2-0.2,0.1-0.5-0.1-0.7c-0.2-0.1-0.5-0.1-0.6,0c-0.1-0.2-0.2-0.4-0.2-0.6
			C11,20.2,16.2,15,22.5,15c3.9,0,6.9,0.8,9.1,2.3c-2.4,2.1-3.6,5.3-3.6,9.2c0,3.3,1.8,6.7,4.8,9.2C32.5,36,32.1,36.3,31.7,36.6z
			 M36,27.5c0,2.9-0.9,5.5-2.5,7.4c-2.8-2.3-4.5-5.4-4.5-8.4c0-3.7,1.2-6.6,3.5-8.6C34.8,20,36,23.2,36,27.5z M54.9,32.6
			c-0.1,0.2-0.4,0.4-0.6,0.4h-0.4c-0.4,0-0.7,0.2-0.9,0.5c-0.2,0.3-0.3,0.7-0.1,1l0.6,1.7l-0.6,0.6c-0.1,0.1-0.2,0.2-0.2,0.4
			c0,0.1,0.1,0.3,0.2,0.4l0.4,0.3l-0.8,1.2c-0.4,0.6-0.3,1.3,0.1,1.8l0.3,0.4c0.2,0.2,0.2,0.6,0.1,0.8c-0.1,0.2-0.3,0.3-0.5,0.3
			l-3.3,0.4c-1.2,0.1-2.3,0.8-3,1.7c-0.6,0.8-0.9,1.7-0.9,2.7l0,2.7h-8.9l0.4-9.7c0.1-1.8-0.8-3.5-2.3-4.4c-0.1-0.1-0.3-0.2-0.4-0.3
			c1.8-2.1,2.7-4.9,2.7-8c0-4.6-1.3-8-3.8-10.2c2.1-1.5,4.9-2.3,8.2-2.3C47.8,15,53,20.2,53,26.5c0,0.3-0.1,0.4-0.2,0.6
			c-0.2-0.2-0.4-0.2-0.6,0c-0.2,0.2-0.3,0.5-0.1,0.7l2.9,4.1C55.1,32.1,55.1,32.4,54.9,32.6z"/>
		<path d="M50.1,27.5c-0.1,0-2-0.4-3.3,0.9c-0.2,0.2-0.2,0.5,0,0.7c0.1,0.1,0.2,0.1,0.3,0.1c0.1,0,0.3-0.1,0.4-0.2
			c0.6-0.6,1.5-0.7,2-0.7v0.1c0,0.3,0.2,0.5,0.5,0.5s0.5-0.2,0.5-0.5V28C50.5,27.8,50.3,27.6,50.1,27.5z"/>
		<path d="M44.1,41.2c-1.8,0-2.9-1.9-2.9-1.9c-0.1-0.2-0.4-0.3-0.7-0.2c-0.2,0.1-0.3,0.4-0.2,0.7c0.1,0.1,1.3,2.4,3.8,2.4
			c0.3,0,0.5-0.2,0.5-0.5S44.3,41.2,44.1,41.2z"/>
		<path d="M14,27.5c-0.2,0.1-0.4,0.3-0.4,0.5v0.5c0,0.3,0.2,0.5,0.5,0.5s0.5-0.2,0.5-0.5v-0.1c0.5,0,1.4,0,2,0.7
			c0.1,0.1,0.2,0.2,0.4,0.2c0.1,0,0.2,0,0.3-0.1c0.2-0.2,0.2-0.5,0-0.7C16,27.1,14,27.5,14,27.5z"/>
		<path d="M23.5,39.1c-0.2-0.1-0.5,0-0.7,0.2c0,0-1,1.9-2.9,1.9c-0.3,0-0.5,0.2-0.5,0.5s0.2,0.5,0.5,0.5c2.4,0,3.7-2.3,3.8-2.4
			C23.9,39.5,23.8,39.2,23.5,39.1z"/>
	</g>
</g>
<g>
	<rect y="0" class="st0" width="64" height="64"/>
</g>
</svg>
