<?xml version="1.0" encoding="utf-8"?>
<!-- Generator: Adobe Illustrator 21.1.0, SVG Export Plug-In . SVG Version: 6.00 Build 0)  -->
<svg version="1.1" id="Calque_1" xmlns="http://www.w3.org/2000/svg" xmlns:xlink="http://www.w3.org/1999/xlink" x="0px" y="0px"
	 viewBox="0 0 91 113.8" style="enable-background:new 0 0 91 113.8;" xml:space="preserve">
<g>
	<path d="M65,54.1c2.5,0.8,5,0.7,7.3-0.4c2.6-1.3,3.8-3.7,3.4-6.8c-0.4-2.7-2.6-5.1-5.2-5.5c-1.6-0.3-3.1,0-4.9,0.9
		c0.4-2.3-1.2-2.8-2.7-3.5c-0.1-0.1-0.3-0.1-0.4-0.2c-1.2-0.3-0.4-0.9-0.2-1.4c0.3-0.8,0.6-0.2,0.9,0c1.9,1.1,3.9,1.5,6,1.1
		c3.9-0.8,6.7-4.6,6.5-8.5c-0.3-4.7-3.6-6.7-8-5c-1,0.4-1.9,1-3,1.5c-0.2-0.9,0.1-1.8-0.8-2.5c-2-1.5-1.9-1.5-1.2-3.9
		c0.2-0.6,0.3-0.8,1-0.5c3.3,1.2,6.3,0.6,9-1.4c2.7-2,3.5-5.1,2.3-8c-1.2-2.9-4.3-4.5-7.5-4.1c-1.5,0.2-2.9,0.7-4.2,1.5
		C63.1,6.7,63,6.4,62.9,6c-0.5-1.6-1.5-2.6-3.2-3.1C55.4,1.8,51.2,1,46.8,0.7C38.5,0.1,30.4,1,22.4,3.3c-0.6,0.2-0.9,0.5-1,1.2
		c-0.9,5.7,0,11.2,2.8,16.3c0.3,0.5,0.4,0.8-0.3,1.1c-2.4,1-3.3,2.9-3.3,5.3c-0.1,3.4,0.2,6.7,1.2,9.9c0.2,0.7,0,0.9-0.6,1
		c-0.6,0.1-1.3,0.4-1.4,1c-0.1,0.7-0.4,1.4-0.5,2.1C18.7,46.3,19,51.3,21,56c0.3,0.7,0.2,0.9-0.5,1c-2,0.5-2,0.5-1.9,2.3
		c0,0,0,0.1,0,0.1c0,6.5,1.7,12.7,5.1,18.3c4.3,7.1,10.4,11.7,19,12.3c6.1,0.4,11.3-1.4,15.4-6c1.4-1.6,2.6-3.4,3.5-5.3
		c0.2-0.5,0.4-0.8,1.1-0.4c1,0.6,2.1,0.7,3.2,0.8c4.1,0.5,7.2-1.2,8.4-4.6c1.1-3.2,0.8-6.4-1-9.3c-1.6-2.7-4.5-3.7-7.5-2.7
		c-0.6,0.2-0.7,0-0.7-0.5c0-1.1-0.1-2.3-0.1-3.4c0-0.4-0.1-0.8-0.4-1c-1.5-1.4-1.4-1.3-0.8-3.1C64,53.8,64.3,53.9,65,54.1z
		 M66.2,47.3c0.5,0.1,1.4-0.1,1.4,0.8c0,0.5-0.5,0.6-1,0.7c-0.3-0.2-1,0.1-1.1-0.6C65.6,47.6,65.6,47.1,66.2,47.3z M65,50.9
		c0.1-0.4,0.3-0.5,0.8-0.4c0.8,0.2,1.7,0.2,2.5-0.2c2-1,2.2-3.3,0.4-4.6c-0.8-0.6-1.7-0.8-2.9-0.8c1.8-1.5,3.7-1.8,5.3-0.9
		c1.6,0.9,2.5,2.8,2.1,4.6c-0.4,1.8-2.2,3.4-4.2,3.7c-1.3,0.2-2.5-0.1-3.7-0.6C65.1,51.6,64.9,51.4,65,50.9z M64.2,31.3
		c0.1-0.3,0.1-0.7,0.5-0.6c0.5,0,1.1-0.1,1.6,0c0.6,0.1,1.3,0.4,1.2,1.1c-0.1,0.7-0.8,0.5-1.2,0.5c-0.7,0-1.3-0.2-1.8-0.4
		C64.2,31.8,64,31.6,64.2,31.3z M63.5,33.9c0.2-0.3,0.4-0.1,0.7,0c0.8,0.3,1.6,0.5,2.4,0.5c1.6,0,2.7-0.6,3.1-1.8
		c0.4-1.3-0.2-2.9-1.5-3.7c-0.8-0.4-1.6-0.6-2.7-0.7c1.6-1,3-1.7,4.6-1.9c1.6-0.1,2.6,0.6,3,2.1c0.6,2.3-0.5,5.3-2.5,6.5
		c-1.9,1.2-4.7,0.9-6.7-0.6C63.7,34.3,63.3,34.2,63.5,33.9z M63.8,15c1.3,0.6,2.5,1.1,4,1c0.7,0,1.3-0.2,1.9-0.5
		c1.1-0.7,2-1.6,1.9-3c0-1.3-1-1.9-2-2.4c-1.7-0.7-3.5-0.9-5.6-0.5c1.9-1.5,3.7-2.3,5.9-1.7c1.8,0.5,2.9,1.8,3.2,3.6
		c0.4,1.7-0.4,3.4-2.1,4.4c-2,1.2-4.1,1.4-6.3,0.7C63.6,16.5,63.4,16,63.8,15z M63.9,12.3c0-0.2,0.2-0.2,0.4-0.2
		c0.6-0.1,1.2-0.1,1.8-0.1c0.8,0,1.5,0.1,2.1,0.5c0.3,0.2,0.5,0.4,0.5,0.7c0,0.3-0.4,0.4-0.6,0.5c-1.1,0.4-3.2-0.1-4-0.9
		C63.9,12.6,63.8,12.5,63.9,12.3z M56.5,4.9C46.4,7.1,36.3,8.5,26.3,4.8C36.4,3,46.4,3.1,56.5,4.9z M23.6,6
		c4.7,3.2,9.9,3.3,15.1,3.5c7.2,0.2,14.2-0.6,21.1-2.8c0.6-0.2,0.8-0.1,0.9,0.5c0.4,2.6,0.8,5.1,0.4,7.7c-0.6,3.4-2,6.6-3.5,9.7
		c-0.2,0.4-0.5,0.5-0.9,0.5c-6.6,0.7-13.1,1.1-19.8,0.6c-2.3-0.2-4.6-0.5-6.8-0.9c-0.8-0.2-2-1.5-2.1-2.4c0-0.3,0-0.6-0.2-0.8
		c-2-1.8-2.5-4.4-3.2-6.7C23.7,12.1,23.5,9.2,23.6,6z M23.1,28.5c0-0.7,0-1.5,0.2-2.2c0.1-0.6,0.4-0.7,1-0.5
		c6.2,2.5,12.8,3.2,19.4,3.1c5.7-0.1,11.4-0.8,17.1-1.7c1.2-0.2,1.2-0.2,1.1,1c-0.3,3.4-1.2,6.6-2.6,9.8c-0.3,0.6-0.6,1.2-1,1.8
		c-0.7,1.1-1.6,1.8-3,1.9c-3.5,0.2-7,0.6-11.7,0.6c-5.1,0.3-11.3-0.7-17.4-1.5c-0.6-0.1-0.9-0.4-1-0.8c-0.3-1.1-1-2-1.3-3.1
		C23.1,34,23.1,31.2,23.1,28.5z M61.9,67.8c-0.5,3.5-1.3,7-2.9,10.2c-3.3,6.9-8.4,10-16.1,9.6c-6.5-0.3-11.5-3.4-15.3-8.4
		c-3.8-5.1-5.7-10.9-6.8-17c-0.1-0.6-0.4-1.2-0.2-1.9c4.9,2.3,10.1,2.6,15.4,2.6c3.8,0,7.5-0.2,11.3-0.2c3.9,0,7.7,0,11.6-0.7
		c1.2-0.2,2.4-0.6,3.7-1.1C62.5,63.3,62.2,65.6,61.9,67.8z M62,51.2c-0.3,1.3-0.7,2.6-1.4,3.8c-0.4,0.8-0.5,1.9-0.9,2.9
		c-0.2,0.4-0.3,0.7-0.8,0.7c-4.1,0.5-8.1,1.7-12.3,1.7c-6.3,0.1-12.6,0.4-18.9-0.4c-2.2-0.3-2.5-0.5-3.1-2.7c-0.2-0.6-0.8-0.9-1-1.5
		c-1.7-4.3-2-8.8-2.2-13.3c0-0.5,0.1-0.6,0.6-0.5c11,3.4,22.3,2.7,33.5,2.2c2.6-0.1,5.2-0.7,7.7-1.9C63.2,45.4,62.8,48.3,62,51.2z
		 M64.3,69.9c0.2-1.3,1.2-1.8,2.5-1.2c0.5,0.2,0.8,0.6,0.8,1.1c0,0.6-0.4,1-0.9,1.2c-0.4,0.2-0.8,0.3-1.3,0.2
		C64.2,71.4,64.1,71.2,64.3,69.9z M63.7,73.1c0.4-0.4,1.1,0.2,1.6,0.3c1.9,0.4,3.9-0.7,4.5-2.4c0.6-1.7-0.2-3.4-2.1-4.4
		c-0.7-0.3-1.4-0.6-2.2-0.6c-0.3,0-0.6,0.1-0.7-0.3c-0.1-0.4,0.2-0.6,0.4-0.8c1.7-1.2,4.2-0.6,5.6,1.2c1.1,1.5,1.4,3.3,1.4,5.1
		c0,0.3,0,0.6-0.1,0.8c-0.2,2.3-1.8,4.6-4.8,4.2c-1.3,0-2.6-0.1-3.8-0.4c-0.7-0.1-0.9-0.5-0.6-1.1c0-0.1,0.1-0.1,0.1-0.2
		C63.3,74.2,63.3,73.4,63.7,73.1z"/>
</g>
</svg>
