<?xml version="1.0" encoding="utf-8"?>
<!-- Generator: Adobe Illustrator 21.1.0, SVG Export Plug-In . SVG Version: 6.00 Build 0)  -->
<svg version="1.1" id="Calque_1" xmlns="http://www.w3.org/2000/svg" xmlns:xlink="http://www.w3.org/1999/xlink" x="0px" y="0px"
	 viewBox="0 0 100 125" style="enable-background:new 0 0 100 125;" xml:space="preserve">
<path d="M73,34h-9.6l-1.5-3.7c-0.3-0.8-1-1.3-1.9-1.3H40c-0.8,0-1.6,0.5-1.9,1.3L36.6,34H27c-2.2,0-4,1.8-4,4v29c0,2.2,1.8,4,4,4h46
	c2.2,0,4-1.8,4-4V38C77,35.8,75.2,34,73,34z M73,67H27V38h11c0.8,0,1.6-0.5,1.9-1.3l1.5-3.7h17.3l1.5,3.7c0.3,0.8,1,1.3,1.9,1.3h11
	v29H73z M50,41c-6.1,0-11,4.9-11,11s4.9,11,11,11s11-4.9,11-11S56.1,41,50,41z M50,59c-3.9,0-7-3.1-7-7s3.1-7,7-7s7,3.1,7,7
	S53.9,59,50,59z"/>
</svg>
